<?xml version="1.0" encoding="UTF-8"?>
<svg id="Layer_2" data-name="Layer 2" xmlns="http://www.w3.org/2000/svg" viewBox="0 0 87.4 87.4">
  <defs>
    <style>
      .cls-1 {
        fill: #333;
      }
    </style>
  </defs>
  <g id="Layer_2-2" data-name="Layer 2">
    <path class="cls-1" d="m71.9,20.3c0,2.8-2.3,5.1-5.1,5.1s-5.1-2.3-5.1-5.1,2.3-5.1,5.1-5.1,5.1,2.3,5.1,5.1Zm-6.3,22.7c0,11.7-9.6,21.3-21.3,21.3s-21.3-9.6-21.3-21.3,9.6-21.3,21.3-21.3,21.3,9.6,21.3,21.3Zm-7.7,0c0-7.5-6.1-13.6-13.6-13.6s-13.6,6.1-13.6,13.6,6.1,13.6,13.6,13.6,13.6-6.1,13.6-13.6Zm29.5-17.1c0-14.3-11.6-26-26-26H26C11.6,0,0,11.6,0,26v35.4c0,14.3,11.6,26,26,26h35.4c14.3,0,26-11.6,26-26V26Zm-8.5,35c0,9.8-8,17.8-17.8,17.8H26.4c-9.9,0-17.8-8-17.8-17.8V26.4c0-9.8,8-17.8,17.8-17.8h34.7c9.8,0,17.8,8,17.8,17.8v34.7Z"/>
  </g>
</svg>