<?xml version="1.0" encoding="UTF-8"?>
<svg id="Layer_2" data-name="Layer 2" xmlns="http://www.w3.org/2000/svg" viewBox="0 0 86 99.2">
  <defs>
    <style>
      .cls-1 {
        fill: #333;
      }
    </style>
  </defs>
  <g id="Layer_2-2" data-name="Layer 2">
    <path class="cls-1" d="m75.3,21.2c-.7-.3-1.3-.7-2-1.1-1.8-1.2-3.5-2.6-5-4.3-3.7-4.3-5.1-8.6-5.7-11.7h0c-.4-2.5-.3-4.2-.2-4.2h-17v65.9c0,.9,0,1.8,0,2.6,0,.1,0,.2,0,.3,0,0,0,0,0,.1h0c-.4,4.8-3.1,9.1-7.3,11.5-2.1,1.2-4.6,1.9-7,1.9-7.9,0-14.4-6.5-14.4-14.5s6.4-14.5,14.4-14.5c1.5,0,3,.2,4.4.7v-17.3c-8.7-1.1-17.6,1.5-24.4,7.1-2.9,2.6-5.4,5.6-7.3,9-.7,1.2-3.4,6.2-3.8,14.3-.2,4.6,1.2,9.3,1.8,11.3h0c.4,1.2,2,5.1,4.6,8.5,2.1,2.7,4.6,5,7.4,7h0s0,0,0,0c8.2,5.6,17.4,5.2,17.4,5.2,1.6,0,6.9,0,12.9-2.9,6.7-3.2,10.5-7.9,10.5-7.9,2.4-2.8,4.4-6,5.7-9.5,1.5-4.1,2.1-8.9,2.1-10.9v-35c.2.1,3,1.9,3,1.9,0,0,4,2.5,10.2,4.2,4.4,1.2,10.4,1.4,10.4,1.4v-16.9c-2.1.2-6.4-.4-10.7-2.6Z"/>
  </g>
</svg>